# xmcd
#
# Track frame offsets: 
#        182
#        12700
#        24440
#        44940
#        59395
#        79687
#        92160
#        111412
#        136827
#        156105
#        167850
#
# Disc length: 2444 seconds
#
# Revision: 3
# Processed by: cddbd v1.4PL0 Copyright (c) Steve Scherf et al.
# Submitted via: ExactAudioCopy v0.90b4
#
DISCID=95098a0b
DTITLE=Various Artist - The Song Retains The Name
DYEAR=1988
DGENRE=Rock
TTITLE0=Black Dog - The Royal Mixxers with KGIG and Konan Kelley
TTITLE1=Living Loving Maid (She's Just A Woman) - Rich Hardesty and The 
TTITLE1=Del Reys
TTITLE2=Down By The Seaside - Robert Kuhlmann and Flying Boats
TTITLE3=Good Times, Bad Times - Dalai Lamas
TTITLE4=Four Sticks - Earwigs
TTITLE5=Immigrant Song - Headface
TTITLE6=In The Evening - Twice Shy
TTITLE7=No Quarter - I Love Ethyl
TTITLE8=What Is And What Should Never Be - Helen Keller Plaid
TTITLE9=Houses Of The Holy - Fool Killers
TTITLE10=Rock And Roll - Tent Poles
EXTD=Mad Rover Records\nMR 8801-2
EXTT0=The Royal Mixxers with KGIG and Konan \nKelley\n
EXTT1=Rich Hardesty and The Del Reys\n
EXTT2=Robert Kuhlmann and Flying Boats\n
EXTT3=Dalai Lamas\n
EXTT4=Earwigs\n
EXTT5=Headface\n
EXTT6=Twice Shy\n
EXTT7=I Love Ethyl\n
EXTT8=Helen Keller Plaid\n
EXTT9=Fool Killers\n
EXTT10=Tent Poles\n
PLAYORDER=
